<svg xmlns="http://www.w3.org/2000/svg" width="32" height="32" viewBox="0 0 32 32">
  <rect x="8" y="8" width="16" height="16" rx="3" ry="3" fill="#f0f0f0" stroke="#cccccc" stroke-width="1"/>

  <path d="M11 9 h10 a2 2 0 0 1 2 2 v10 a2 2 0 0 1 -2 2 h-10 a2 2 0 0 1 -2 -2 v-10 a2 2 0 0 1 2 -2 z" fill="#ffffff" stroke="#000000" stroke-width="1"/>

  <line x1="13" y1="13" x2="19" y2="13" stroke="#000000" stroke-width="1.5"/>
  <line x1="13" y1="15.5" x2="19" y2="15.5" stroke="#000000" stroke-width="1.5"/>
  <line x1="13" y1="18" x2="19" y2="18" stroke="#000000" stroke-width="1.5"/>

  <circle cx="16" cy="23" r="2.5" fill="#cccccc" stroke="#000000" stroke-width="1"/>
  <rect x="15.25" y="22.25" width="1.5" height="1.5" fill="#000000"/>
</svg>